# 3ds Max Wavefront OBJ Exporter v0.97b - (c)2007 guruware
# File Created: 31.01.2016 20:51:05

mtllib Lamp 4.mtl

#
# object Lamp_4
#

v  0.0343 -0.7199 -0.1881
v  0.0224 -0.7199 -0.2087
v  0.0343 -0.7199 -0.2293
v  0.0701 -0.7199 -0.2087
v  0.0582 -0.7199 -0.2293
v  0.0582 -0.7199 -0.1881
v  0.1151 -0.7744 -0.2087
v  0.0807 -0.7744 -0.2683
v  0.0640 -0.6292 -0.2395
v  0.0818 -0.6292 -0.2087
v  0.0118 -0.7744 -0.2683
v  0.0284 -0.6292 -0.2395
v  -0.0226 -0.7744 -0.2087
v  0.0106 -0.6292 -0.2087
v  0.0118 -0.7744 -0.1491
v  0.0284 -0.6292 -0.1779
v  0.0807 -0.7744 -0.1491
v  0.0640 -0.6292 -0.1779
v  0.1077 -0.7744 -0.2087
v  0.0770 -0.7744 -0.2619
v  0.0770 -0.7744 -0.1554
v  0.0155 -0.7744 -0.1554
v  -0.0153 -0.7744 -0.2087
v  0.0155 -0.7744 -0.2619
v  0.0273 -0.6295 -0.1758
v  0.0083 -0.6295 -0.2087
v  0.0273 -0.6295 -0.2415
v  0.0842 -0.6295 -0.2087
v  0.0652 -0.6295 -0.2415
v  0.0652 -0.6295 -0.1758
v  0.0560 -0.5495 -0.2257
v  0.0659 -0.5495 -0.2087
v  0.0364 -0.5495 -0.2257
v  0.0266 -0.5495 -0.2087
v  0.0364 -0.5495 -0.1917
v  0.0560 -0.5495 -0.1917
v  0.0462 -0.7109 -0.2087
v  0.0462 -0.7247 -0.2419
v  0.0228 -0.7247 -0.2321
v  0.0131 -0.7247 -0.2087
v  0.0228 -0.7247 -0.1852
v  0.0462 -0.7247 -0.1755
v  0.0697 -0.7247 -0.1852
v  0.0794 -0.7247 -0.2087
v  0.0697 -0.7247 -0.2321
v  0.0131 -0.7579 -0.2419
v  0.0462 -0.7579 -0.2556
v  -0.0007 -0.7579 -0.2087
v  0.0131 -0.7579 -0.1755
v  0.0462 -0.7579 -0.1618
v  0.0794 -0.7579 -0.1755
v  0.0932 -0.7579 -0.2087
v  0.0794 -0.7579 -0.2419
v  0.0228 -0.7910 -0.2321
v  0.0462 -0.7910 -0.2419
v  0.0131 -0.7910 -0.2087
v  0.0228 -0.7910 -0.1852
v  0.0462 -0.7910 -0.1755
v  0.0697 -0.7910 -0.1852
v  0.0794 -0.7910 -0.2087
v  0.0697 -0.7910 -0.2321
v  0.0462 -0.8048 -0.2087
v  0.0570 -0.5568 -0.2087
v  0.0409 -0.5568 -0.2180
v  0.0409 -0.5160 -0.2180
v  0.0570 -0.5160 -0.2087
v  0.0409 -0.5568 -0.1994
v  0.0409 -0.5160 -0.1994
v  0.0512 -0.5234 -0.2087
v  0.0437 -0.5234 -0.2130
v  0.0437 0.0069 -0.2130
v  0.0512 0.0069 -0.2087
v  0.0437 -0.5234 -0.2044
v  0.0437 0.0069 -0.2044
v  -0.0070 -0.4966 0.2734
v  -0.0189 -0.4966 0.2527
v  -0.0070 -0.4966 0.2321
v  0.0288 -0.4966 0.2527
v  0.0169 -0.4966 0.2321
v  0.0169 -0.4966 0.2734
v  0.0738 -0.5511 0.2527
v  0.0394 -0.5511 0.1931
v  0.0227 -0.4059 0.2219
v  0.0405 -0.4059 0.2527
v  -0.0295 -0.5511 0.1931
v  -0.0129 -0.4059 0.2219
v  -0.0639 -0.5511 0.2527
v  -0.0307 -0.4059 0.2527
v  -0.0295 -0.5511 0.3123
v  -0.0129 -0.4059 0.2836
v  0.0394 -0.5511 0.3123
v  0.0227 -0.4059 0.2836
v  0.0664 -0.5511 0.2527
v  0.0357 -0.5511 0.1995
v  0.0357 -0.5511 0.3060
v  -0.0258 -0.5511 0.3060
v  -0.0566 -0.5511 0.2527
v  -0.0258 -0.5511 0.1995
v  -0.0140 -0.4061 0.2856
v  -0.0330 -0.4061 0.2527
v  -0.0140 -0.4061 0.2199
v  0.0429 -0.4061 0.2527
v  0.0239 -0.4061 0.2199
v  0.0239 -0.4061 0.2856
v  0.0148 -0.3261 0.2357
v  0.0246 -0.3261 0.2527
v  -0.0049 -0.3261 0.2357
v  -0.0147 -0.3261 0.2527
v  -0.0049 -0.3261 0.2697
v  0.0148 -0.3261 0.2697
v  0.0049 -0.4876 0.2527
v  0.0049 -0.5014 0.2196
v  -0.0185 -0.5014 0.2293
v  -0.0282 -0.5014 0.2527
v  -0.0185 -0.5014 0.2762
v  0.0049 -0.5014 0.2859
v  0.0284 -0.5014 0.2762
v  0.0381 -0.5014 0.2527
v  0.0284 -0.5014 0.2293
v  -0.0282 -0.5345 0.2196
v  0.0049 -0.5345 0.2058
v  -0.0420 -0.5345 0.2527
v  -0.0282 -0.5345 0.2859
v  0.0049 -0.5345 0.2996
v  0.0381 -0.5345 0.2859
v  0.0519 -0.5345 0.2527
v  0.0381 -0.5345 0.2196
v  -0.0185 -0.5677 0.2293
v  0.0049 -0.5677 0.2196
v  -0.0282 -0.5677 0.2527
v  -0.0185 -0.5677 0.2762
v  0.0049 -0.5677 0.2859
v  0.0284 -0.5677 0.2762
v  0.0381 -0.5677 0.2527
v  0.0284 -0.5677 0.2293
v  0.0049 -0.5815 0.2527
v  0.0157 -0.3335 0.2527
v  -0.0004 -0.3335 0.2434
v  -0.0004 -0.2927 0.2434
v  0.0157 -0.2927 0.2527
v  -0.0004 -0.3335 0.2620
v  -0.0004 -0.2927 0.2620
v  0.0099 -0.3001 0.2527
v  0.0024 -0.3001 0.2484
v  0.0024 0.0089 0.2484
v  0.0099 0.0089 0.2527
v  0.0024 -0.3001 0.2571
v  0.0024 0.0089 0.2571
v  -0.2532 -0.9817 0.0199
v  -0.2652 -0.9817 -0.0007
v  -0.2532 -0.9817 -0.0213
v  -0.2175 -0.9817 -0.0007
v  -0.2294 -0.9817 -0.0213
v  -0.2294 -0.9817 0.0199
v  -0.1725 -1.0362 -0.0007
v  -0.2069 -1.0362 -0.0603
v  -0.2235 -0.8910 -0.0315
v  -0.2057 -0.8910 -0.0007
v  -0.2758 -1.0362 -0.0603
v  -0.2591 -0.8910 -0.0315
v  -0.3102 -1.0362 -0.0007
v  -0.2769 -0.8910 -0.0007
v  -0.2758 -1.0362 0.0589
v  -0.2591 -0.8910 0.0301
v  -0.2069 -1.0362 0.0589
v  -0.2235 -0.8910 0.0301
v  -0.1798 -1.0362 -0.0007
v  -0.2106 -1.0362 -0.0539
v  -0.2106 -1.0362 0.0526
v  -0.2721 -1.0362 0.0526
v  -0.3028 -1.0362 -0.0007
v  -0.2721 -1.0362 -0.0539
v  -0.2603 -0.8913 0.0322
v  -0.2793 -0.8913 -0.0007
v  -0.2603 -0.8913 -0.0335
v  -0.2034 -0.8913 -0.0007
v  -0.2224 -0.8913 -0.0335
v  -0.2224 -0.8913 0.0322
v  -0.2315 -0.8113 -0.0177
v  -0.2217 -0.8113 -0.0007
v  -0.2511 -0.8113 -0.0177
v  -0.2610 -0.8113 -0.0007
v  -0.2511 -0.8113 0.0163
v  -0.2315 -0.8113 0.0163
v  -0.2413 -0.9727 -0.0007
v  -0.2413 -0.9865 -0.0339
v  -0.2648 -0.9865 -0.0241
v  -0.2745 -0.9865 -0.0007
v  -0.2648 -0.9865 0.0228
v  -0.2413 -0.9865 0.0325
v  -0.2179 -0.9865 0.0228
v  -0.2082 -0.9865 -0.0007
v  -0.2179 -0.9865 -0.0241
v  -0.2745 -1.0196 -0.0339
v  -0.2413 -1.0196 -0.0476
v  -0.2883 -1.0196 -0.0007
v  -0.2745 -1.0196 0.0325
v  -0.2413 -1.0196 0.0462
v  -0.2082 -1.0196 0.0325
v  -0.1944 -1.0196 -0.0007
v  -0.2082 -1.0196 -0.0339
v  -0.2648 -1.0528 -0.0241
v  -0.2413 -1.0528 -0.0339
v  -0.2745 -1.0528 -0.0007
v  -0.2648 -1.0528 0.0228
v  -0.2413 -1.0528 0.0325
v  -0.2179 -1.0528 0.0228
v  -0.2082 -1.0528 -0.0007
v  -0.2179 -1.0528 -0.0241
v  -0.2413 -1.0666 -0.0007
v  -0.2306 -0.8186 -0.0007
v  -0.2467 -0.8186 -0.0100
v  -0.2467 -0.7778 -0.0100
v  -0.2306 -0.7778 -0.0007
v  -0.2467 -0.8186 0.0086
v  -0.2467 -0.7778 0.0086
v  -0.2363 -0.7852 -0.0007
v  -0.2438 -0.7852 -0.0050
v  -0.2438 0.0075 -0.0050
v  -0.2363 0.0075 -0.0007
v  -0.2438 -0.7852 0.0036
v  -0.2438 0.0075 0.0036
# 222 vertices

vn 0.0000 -1.0000 -0.0000
vn 0.9748 0.2232 0.0000
vn 0.4874 0.2232 -0.8442
vn -0.4874 0.2232 -0.8442
vn -0.9748 0.2232 0.0000
vn -0.4874 0.2232 0.8442
vn 0.4874 0.2232 0.8442
vn 0.0000 1.0000 -0.0000
vn -0.7429 -0.5140 0.4289
vn -0.7429 -0.5140 -0.4289
vn 0.0000 -0.5140 -0.8578
vn 0.7429 -0.5140 -0.4289
vn 0.7429 -0.5140 0.4289
vn 0.0000 -0.5140 0.8578
vn -0.0000 1.0000 -0.0000
vn 0.0000 0.6630 -0.7486
vn -0.5294 0.6630 -0.5294
vn -0.7486 0.6630 0.0000
vn -0.5294 0.6630 0.5294
vn -0.0000 0.6630 0.7486
vn 0.5294 0.6630 0.5294
vn 0.7486 0.6630 0.0000
vn 0.5294 0.6630 -0.5294
vn -0.7071 -0.0000 -0.7071
vn 0.0000 -0.0000 -1.0000
vn -1.0000 -0.0000 0.0000
vn -0.7071 -0.0000 0.7071
vn -0.0000 -0.0000 1.0000
vn 0.7071 -0.0000 0.7071
vn 1.0000 -0.0000 0.0000
vn 0.7071 -0.0000 -0.7071
vn -0.5294 -0.6630 -0.5294
vn 0.0000 -0.6630 -0.7486
vn -0.7486 -0.6630 0.0000
vn -0.5294 -0.6630 0.5294
vn -0.0000 -0.6630 0.7486
vn 0.5294 -0.6630 0.5294
vn 0.7486 -0.6630 0.0000
vn 0.5294 -0.6630 -0.5294
vn -0.0000 -1.0000 -0.0000
vn 1.0000 0.0000 0.0000
vn -0.5000 0.0000 -0.8660
vn 1.0000 0.0000 -0.0000
vn -0.5000 0.0000 0.8660
vn -0.5000 -0.0000 -0.8660
vn 1.0000 -0.0000 -0.0000
vn 0.0000 1.0000 0.0000
vn -0.7071 0.0000 -0.7071
vn -0.0000 0.0000 -1.0000
vn 0.0000 -0.6630 0.7486
vn 0.0000 -1.0000 0.0000
vn -0.9748 0.2232 -0.0000
vn 0.9748 0.2232 -0.0000
vn 0.0000 0.6630 0.7486
vn 0.0000 0.0000 -1.0000
vn 0.0000 -0.0000 1.0000
vn 0.7071 0.0000 -0.7071
vn -0.7486 -0.6630 -0.0000
# 58 vertex normals

vt 0.1649 0.0225 -1.0000
vt 0.2605 0.0225 -1.0000
vt 0.4993 0.0225 0.0000
vt 0.5470 0.0225 1.0000
vt 0.6425 0.0225 1.0000
vt 0.3082 0.0225 -0.0000
vt 0.6425 0.5442 1.0000
vt 0.5470 0.5442 1.0000
vt 0.0694 0.0225 1.0000
vt 0.1649 0.0225 1.0000
vt 0.1649 0.5442 1.0000
vt 0.0694 0.5442 1.0000
vt 0.2605 0.0225 1.0000
vt 0.2605 0.5442 1.0000
vt 0.3560 0.0225 1.0000
vt 0.3560 0.5442 1.0000
vt 0.4515 0.0225 1.0000
vt 0.4515 0.5442 1.0000
vt 0.4993 0.5442 -0.0000
vt 0.1649 0.5442 -1.0000
vt 0.2605 0.5442 -1.0000
vt 0.1113 0.5705 -1.0000
vt 0.1599 0.5705 -1.0000
vt 0.2813 0.5705 0.0000
vt 0.3056 0.5705 1.0000
vt 0.3542 0.5705 1.0000
vt 0.1842 0.5705 -0.0000
vt 0.3542 0.8690 1.0000
vt 0.3056 0.8690 1.0000
vt 0.0628 0.5705 1.0000
vt 0.1113 0.5705 1.0000
vt 0.1113 0.8690 1.0000
vt 0.0628 0.8690 1.0000
vt 0.1599 0.5705 1.0000
vt 0.1599 0.8690 1.0000
vt 0.2085 0.5705 1.0000
vt 0.2085 0.8690 1.0000
vt 0.2570 0.5705 1.0000
vt 0.2570 0.8690 1.0000
vt 0.2813 0.8690 -0.0000
vt 0.1113 0.8690 -1.0000
vt 0.1599 0.8690 -1.0000
vt 0.6919 0.2817 0.0000
vt 0.6919 0.2226 0.0000
vt 0.7246 0.2226 0.0000
vt 0.7246 0.2817 0.0000
vt 0.7574 0.2226 0.0000
vt 0.7574 0.2817 0.0000
vt 0.7902 0.2226 0.0000
vt 0.7902 0.2817 0.0000
vt 0.8229 0.2226 0.0000
vt 0.8229 0.2817 0.0000
vt 0.8557 0.2226 0.0000
vt 0.8557 0.2817 0.0000
vt 0.8885 0.2226 0.0000
vt 0.8885 0.2817 0.0000
vt 0.9212 0.2226 0.0000
vt 0.9212 0.2817 0.0000
vt 0.9540 0.2226 0.0000
vt 0.7246 0.1635 0.0000
vt 0.6919 0.1635 0.0000
vt 0.7574 0.1635 0.0000
vt 0.7902 0.1635 0.0000
vt 0.8229 0.1635 0.0000
vt 0.8557 0.1635 0.0000
vt 0.8885 0.1635 0.0000
vt 0.9212 0.1635 0.0000
vt 0.9540 0.1635 0.0000
vt 0.7246 0.1045 0.0000
vt 0.6919 0.1045 0.0000
vt 0.7574 0.1045 0.0000
vt 0.7902 0.1045 0.0000
vt 0.8229 0.1045 0.0000
vt 0.8557 0.1045 0.0000
vt 0.8885 0.1045 0.0000
vt 0.9212 0.1045 0.0000
vt 0.9540 0.1045 0.0000
vt 0.6919 0.0454 0.0000
vt 0.7246 0.0454 0.0000
vt 0.7574 0.0454 0.0000
vt 0.7902 0.0454 0.0000
vt 0.8229 0.0454 0.0000
vt 0.8557 0.0454 0.0000
vt 0.8885 0.0454 0.0000
vt 0.9212 0.0454 0.0000
vt 0.6028 0.5935 1.0000
vt 0.6907 0.5935 1.0000
vt 0.6907 0.8335 1.0000
vt 0.6028 0.8335 1.0000
vt 0.4271 0.5935 1.0000
vt 0.5150 0.5935 1.0000
vt 0.5150 0.8335 1.0000
vt 0.4271 0.8335 1.0000
vt 0.2144 0.7378 -0.2500
vt 0.2144 0.7379 -0.2500
vt 0.2144 0.7379 0.2500
vt 0.2144 0.7378 0.2500
vt 0.9709 0.9437 1.0000
vt 0.9709 0.9703 1.0000
vt 0.0103 0.9703 1.0000
vt 0.0103 0.9437 1.0000
vt 0.9709 0.8903 1.0000
vt 0.9709 0.9170 1.0000
vt 0.0103 0.9170 1.0000
vt 0.0103 0.8903 1.0000
# 105 texture coords

g Lamp_4
usemtl wire_154154229
s 1
f 1/1/1 2/2/1 3/3/1 4/4/1 
f 3/3/1 5/5/1 4/4/1 
f 6/6/1 1/1/1 4/4/1 
s 8
f 7/4/2 8/5/3 9/7/3 10/8/2 
f 8/9/3 11/10/4 12/11/4 9/12/3 
f 11/10/4 13/13/5 14/14/5 12/11/4 
f 13/13/5 15/15/6 16/16/6 14/14/5 
f 15/15/6 17/17/7 18/18/7 16/16/6 
f 17/17/7 7/4/2 10/8/2 18/18/7 
s 1
f 10/8/8 9/7/8 12/19/8 16/20/8 
f 12/19/8 14/21/8 16/20/8 
f 18/18/8 10/8/8 16/20/8 
s off
f 8/5/1 7/4/1 19/4/1 20/5/1 
f 7/4/1 17/6/1 21/6/1 19/4/1 
f 17/6/1 15/1/1 22/1/1 21/6/1 
f 15/1/1 13/2/1 23/2/1 22/1/1 
f 13/2/1 11/3/1 24/3/1 23/2/1 
f 11/3/1 8/5/1 20/5/1 24/3/1 
f 20/5/9 19/4/9 4/4/9 5/5/9 
f 19/4/10 21/6/10 6/6/10 4/4/10 
f 21/6/11 22/1/11 1/1/11 6/6/11 
f 22/1/12 23/2/12 2/2/12 1/1/12 
f 23/2/13 24/3/13 3/3/13 2/2/13 
f 24/3/14 20/5/14 5/5/14 3/3/14 
s 1
f 25/22/1 26/23/1 27/24/1 28/25/1 
f 27/24/1 29/26/1 28/25/1 
f 30/27/1 25/22/1 28/25/1 
s 8
f 28/25/2 29/26/3 31/28/3 32/29/2 
f 29/30/3 27/31/4 33/32/4 31/33/3 
f 27/31/4 26/34/5 34/35/5 33/32/4 
f 26/34/5 25/36/6 35/37/6 34/35/5 
f 25/36/6 30/38/7 36/39/7 35/37/6 
f 30/38/7 28/25/2 32/29/2 36/39/7 
s 1
f 32/29/8 31/28/8 33/40/8 35/41/8 
f 33/40/8 34/42/8 35/41/8 
f 36/39/8 32/29/8 35/41/8 
f 37/43/15 38/44/16 39/45/17 
f 37/46/15 39/45/17 40/47/18 
f 37/48/15 40/47/18 41/49/19 
f 37/50/15 41/49/19 42/51/20 
f 37/52/15 42/51/20 43/53/21 
f 37/54/15 43/53/21 44/55/22 
f 37/56/15 44/55/22 45/57/23 
f 37/58/15 45/57/23 38/59/16 
f 46/60/24 39/45/17 38/44/16 47/61/25 
f 48/62/26 40/47/18 39/45/17 46/60/24 
f 49/63/27 41/49/19 40/47/18 48/62/26 
f 50/64/28 42/51/20 41/49/19 49/63/27 
f 51/65/29 43/53/21 42/51/20 50/64/28 
f 52/66/30 44/55/22 43/53/21 51/65/29 
f 53/67/31 45/57/23 44/55/22 52/66/30 
f 47/68/25 38/59/16 45/57/23 53/67/31 
f 54/69/32 46/60/24 47/61/25 55/70/33 
f 56/71/34 48/62/26 46/60/24 54/69/32 
f 57/72/35 49/63/27 48/62/26 56/71/34 
f 58/73/36 50/64/28 49/63/27 57/72/35 
f 59/74/37 51/65/29 50/64/28 58/73/36 
f 60/75/38 52/66/30 51/65/29 59/74/37 
f 61/76/39 53/67/31 52/66/30 60/75/38 
f 55/77/33 47/68/25 53/67/31 61/76/39 
f 62/78/40 54/69/32 55/70/33 
f 62/79/40 56/71/34 54/69/32 
f 62/80/40 57/72/35 56/71/34 
f 62/81/40 58/73/36 57/72/35 
f 62/82/40 59/74/37 58/73/36 
f 62/83/40 60/75/38 59/74/37 
f 62/84/40 61/76/39 60/75/38 
f 62/85/40 55/77/33 61/76/39 
s 8
f 63/86/41 64/87/42 65/88/42 66/89/43 
f 64/90/42 67/91/44 68/92/44 65/93/42 
f 67/91/44 63/86/41 66/89/43 68/92/44 
s 1
f 67/94/1 64/94/1 63/95/1 
f 66/96/8 65/97/8 68/97/8 
s 8
f 69/98/43 70/99/45 71/100/45 72/101/46 
f 70/102/45 73/103/44 74/104/44 71/105/45 
f 73/103/44 69/98/43 72/101/46 74/104/44 
s 1
f 73/94/1 70/94/1 69/95/1 
f 72/96/8 71/97/8 74/97/8 
f 75/1/1 76/2/1 77/3/1 78/4/1 
f 77/3/1 79/5/1 78/4/1 
f 80/6/1 75/1/1 78/4/1 
s 8
f 81/4/2 82/5/3 83/7/3 84/8/2 
f 82/9/3 85/10/4 86/11/4 83/12/3 
f 85/10/4 87/13/5 88/14/5 86/11/4 
f 87/13/5 89/15/6 90/16/6 88/14/5 
f 89/15/6 91/17/7 92/18/7 90/16/6 
f 91/17/7 81/4/2 84/8/2 92/18/7 
s 1
f 84/8/8 83/7/8 86/19/8 90/20/8 
f 86/19/8 88/21/8 90/20/8 
f 92/18/8 84/8/8 90/20/8 
s off
f 82/5/1 81/4/1 93/4/1 94/5/1 
f 81/4/1 91/6/1 95/6/1 93/4/1 
f 91/6/1 89/1/1 96/1/1 95/6/1 
f 89/1/1 87/2/1 97/2/1 96/1/1 
f 87/2/1 85/3/1 98/3/1 97/2/1 
f 85/3/1 82/5/1 94/5/1 98/3/1 
f 94/5/9 93/4/9 78/4/9 79/5/9 
f 93/4/10 95/6/10 80/6/10 78/4/10 
f 95/6/11 96/1/11 75/1/11 80/6/11 
f 96/1/12 97/2/12 76/2/12 75/1/12 
f 97/2/13 98/3/13 77/3/13 76/2/13 
f 98/3/14 94/5/14 79/5/14 77/3/14 
s 1
f 99/22/1 100/23/1 101/24/1 102/25/1 
f 101/24/1 103/26/1 102/25/1 
f 104/27/1 99/22/1 102/25/1 
s 8
f 102/25/2 103/26/3 105/28/3 106/29/2 
f 103/30/3 101/31/4 107/32/4 105/33/3 
f 101/31/4 100/34/5 108/35/5 107/32/4 
f 100/34/5 99/36/6 109/37/6 108/35/5 
f 99/36/6 104/38/7 110/39/7 109/37/6 
f 104/38/7 102/25/2 106/29/2 110/39/7 
s 1
f 106/29/8 105/28/8 107/40/8 109/41/8 
f 107/40/8 108/42/8 109/41/8 
f 110/39/8 106/29/8 109/41/8 
f 111/43/47 112/44/16 113/45/17 
f 111/46/47 113/45/17 114/47/18 
f 111/48/47 114/47/18 115/49/19 
f 111/50/47 115/49/19 116/51/20 
f 111/52/47 116/51/20 117/53/21 
f 111/54/47 117/53/21 118/55/22 
f 111/56/47 118/55/22 119/57/23 
f 111/58/47 119/57/23 112/59/16 
f 120/60/48 113/45/17 112/44/16 121/61/49 
f 122/62/26 114/47/18 113/45/17 120/60/48 
f 123/63/27 115/49/19 114/47/18 122/62/26 
f 124/64/28 116/51/20 115/49/19 123/63/27 
f 125/65/29 117/53/21 116/51/20 124/64/28 
f 126/66/30 118/55/22 117/53/21 125/65/29 
f 127/67/31 119/57/23 118/55/22 126/66/30 
f 121/68/49 112/59/16 119/57/23 127/67/31 
f 128/69/32 120/60/48 121/61/49 129/70/33 
f 130/71/34 122/62/26 120/60/48 128/69/32 
f 131/72/35 123/63/27 122/62/26 130/71/34 
f 132/73/50 124/64/28 123/63/27 131/72/35 
f 133/74/37 125/65/29 124/64/28 132/73/50 
f 134/75/38 126/66/30 125/65/29 133/74/37 
f 135/76/39 127/67/31 126/66/30 134/75/38 
f 129/77/33 121/68/49 127/67/31 135/76/39 
f 136/78/51 128/69/32 129/70/33 
f 136/79/51 130/71/34 128/69/32 
f 136/80/51 131/72/35 130/71/34 
f 136/81/51 132/73/50 131/72/35 
f 136/82/51 133/74/37 132/73/50 
f 136/83/51 134/75/38 133/74/37 
f 136/84/51 135/76/39 134/75/38 
f 136/85/51 129/77/33 135/76/39 
s 8
f 137/86/41 138/87/42 139/88/42 140/89/43 
f 138/90/42 141/91/44 142/92/44 139/93/42 
f 141/91/44 137/86/41 140/89/43 142/92/44 
s 1
f 141/94/1 138/94/1 137/95/1 
f 140/96/8 139/97/8 142/97/8 
s 8
f 143/98/30 144/99/45 145/100/45 146/101/41 
f 144/102/45 147/103/44 148/104/44 145/105/45 
f 147/103/44 143/98/30 146/101/41 148/104/44 
s 1
f 147/94/1 144/94/1 143/95/1 
f 146/96/8 145/97/8 148/97/8 
f 149/1/1 150/2/1 151/3/1 152/4/1 
f 151/3/1 153/5/1 152/4/1 
f 154/6/1 149/1/1 152/4/1 
s 8
f 155/4/2 156/5/3 157/7/3 158/8/2 
f 156/9/3 159/10/4 160/11/4 157/12/3 
f 159/10/4 161/13/52 162/14/5 160/11/4 
f 161/13/52 163/15/6 164/16/6 162/14/5 
f 163/15/6 165/17/7 166/18/7 164/16/6 
f 165/17/7 155/4/2 158/8/2 166/18/7 
s 1
f 158/8/8 157/7/8 160/19/8 164/20/8 
f 160/19/8 162/21/8 164/20/8 
f 166/18/8 158/8/8 164/20/8 
s off
f 156/5/1 155/4/1 167/4/1 168/5/1 
f 155/4/1 165/6/1 169/6/1 167/4/1 
f 165/6/1 163/1/1 170/1/1 169/6/1 
f 163/1/1 161/2/1 171/2/1 170/1/1 
f 161/2/1 159/3/1 172/3/1 171/2/1 
f 159/3/1 156/5/1 168/5/1 172/3/1 
f 168/5/9 167/4/9 152/4/9 153/5/9 
f 167/4/10 169/6/10 154/6/10 152/4/10 
f 169/6/11 170/1/11 149/1/11 154/6/11 
f 170/1/12 171/2/12 150/2/12 149/1/12 
f 171/2/13 172/3/13 151/3/13 150/2/13 
f 172/3/14 168/5/14 153/5/14 151/3/14 
s 1
f 173/22/1 174/23/1 175/24/1 176/25/1 
f 175/24/1 177/26/1 176/25/1 
f 178/27/1 173/22/1 176/25/1 
s 8
f 176/25/53 177/26/3 179/28/3 180/29/2 
f 177/30/3 175/31/4 181/32/4 179/33/3 
f 175/31/4 174/34/52 182/35/52 181/32/4 
f 174/34/52 173/36/6 183/37/6 182/35/52 
f 173/36/6 178/38/7 184/39/7 183/37/6 
f 178/38/7 176/25/53 180/29/2 184/39/7 
s 1
f 180/29/8 179/28/8 181/40/8 183/41/8 
f 181/40/8 182/42/8 183/41/8 
f 184/39/8 180/29/8 183/41/8 
f 185/43/8 186/44/16 187/45/17 
f 185/46/8 187/45/17 188/47/18 
f 185/48/8 188/47/18 189/49/19 
f 185/50/8 189/49/19 190/51/54 
f 185/52/8 190/51/54 191/53/21 
f 185/54/8 191/53/21 192/55/22 
f 185/56/8 192/55/22 193/57/23 
f 185/58/8 193/57/23 186/59/16 
f 194/60/24 187/45/17 186/44/16 195/61/55 
f 196/62/26 188/47/18 187/45/17 194/60/24 
f 197/63/27 189/49/19 188/47/18 196/62/26 
f 198/64/56 190/51/54 189/49/19 197/63/27 
f 199/65/29 191/53/21 190/51/54 198/64/56 
f 200/66/30 192/55/22 191/53/21 199/65/29 
f 201/67/57 193/57/23 192/55/22 200/66/30 
f 195/68/55 186/59/16 193/57/23 201/67/57 
f 202/69/32 194/60/24 195/61/55 203/70/33 
f 204/71/58 196/62/26 194/60/24 202/69/32 
f 205/72/35 197/63/27 196/62/26 204/71/58 
f 206/73/36 198/64/56 197/63/27 205/72/35 
f 207/74/37 199/65/29 198/64/56 206/73/36 
f 208/75/38 200/66/30 199/65/29 207/74/37 
f 209/76/39 201/67/57 200/66/30 208/75/38 
f 203/77/33 195/68/55 201/67/57 209/76/39 
f 210/78/1 202/69/32 203/70/33 
f 210/79/1 204/71/58 202/69/32 
f 210/80/1 205/72/35 204/71/58 
f 210/81/1 206/73/36 205/72/35 
f 210/82/1 207/74/37 206/73/36 
f 210/83/1 208/75/38 207/74/37 
f 210/84/1 209/76/39 208/75/38 
f 210/85/1 203/77/33 209/76/39 
s 8
f 211/86/43 212/87/42 213/88/42 214/89/43 
f 212/90/42 215/91/44 216/92/44 213/93/42 
f 215/91/44 211/86/43 214/89/43 216/92/44 
s 1
f 215/94/1 212/94/1 211/95/1 
f 214/96/8 213/97/8 216/97/8 
s 8
f 217/98/43 218/99/42 219/100/42 220/101/41 
f 218/102/42 221/103/44 222/104/44 219/105/42 
f 221/103/44 217/98/43 220/101/41 222/104/44 
s 1
f 221/94/1 218/94/1 217/95/1 
f 220/96/8 219/97/8 222/97/8 
# 150 polygons - 84 triangles

