# 3ds Max Wavefront OBJ Exporter v0.97b - (c)2007 guruware
# File Created: 31.01.2016 13:03:21

mtllib Lamp 6.mtl

#
# object Lamp_6
#

v  0.0000 1.2517 0.0483
v  0.0000 1.2458 -0.0356
v  -0.1562 1.2458 -0.0356
v  -0.1562 1.2517 0.0483
v  0.0000 1.1683 0.0625
v  0.0000 1.0335 0.0625
v  0.1562 1.0335 0.0625
v  0.1562 1.1683 0.0625
v  0.0000 1.1683 0.0425
v  0.1562 1.1917 0.0425
v  0.1562 1.2517 0.0483
v  0.3424 1.2779 -0.0625
v  0.3424 1.2779 0.0625
v  0.3424 1.1683 0.0625
v  0.3424 1.1683 -0.0625
v  -0.3424 1.2779 0.0625
v  -0.3424 1.2779 -0.0625
v  -0.3424 1.1683 -0.0625
v  -0.3424 1.1683 0.0625
v  0.3124 1.2466 0.0570
v  0.3124 1.2458 -0.0356
v  0.1562 1.2458 -0.0356
v  -0.3124 1.2779 -0.0625
v  -0.3124 1.2779 -0.0356
v  -0.1562 1.2779 -0.0356
v  -0.1562 1.2779 -0.0625
v  -0.3124 1.2465 0.0572
v  -0.1562 1.1949 0.0425
v  -0.3124 1.2779 0.0625
v  -0.3124 1.1683 0.0625
v  -0.1562 1.1683 0.0625
v  -0.1562 1.1949 0.0625
v  0.1562 1.1917 0.0625
v  0.3124 1.1683 0.0625
v  0.3124 1.2779 0.0625
v  0.3424 1.0335 0.0625
v  0.3424 1.0335 -0.0625
v  0.3124 1.2779 -0.0356
v  0.3124 1.2779 -0.0625
v  0.3124 1.0335 0.0625
v  0.0000 1.2779 -0.0625
v  0.0000 1.2779 -0.0356
v  0.1562 1.2779 -0.0625
v  0.1562 1.2779 -0.0356
v  -0.3124 1.2458 -0.0356
v  0.0000 0.9501 0.0483
v  -0.1562 0.9501 0.0483
v  -0.1562 0.9560 -0.0356
v  0.0000 0.9560 -0.0356
v  0.1562 0.9501 0.0483
v  0.1562 1.0101 0.0425
v  0.0000 1.0335 0.0425
v  0.3424 0.9192 0.0625
v  0.3424 0.9192 -0.0625
v  -0.3424 1.0335 -0.0625
v  -0.3424 0.9192 -0.0625
v  -0.3424 0.9192 0.0625
v  -0.3424 1.0335 0.0625
v  0.3124 0.9552 0.0570
v  0.1562 0.9560 -0.0356
v  0.3124 0.9560 -0.0356
v  -0.3124 0.9192 -0.0625
v  -0.1562 0.9192 -0.0625
v  -0.1562 0.9192 -0.0356
v  -0.3124 0.9192 -0.0356
v  -0.3124 1.0335 0.0625
v  -0.1562 1.0335 0.0625
v  -0.1562 1.0069 0.0425
v  -0.3124 0.9553 0.0572
v  -0.3124 0.9192 0.0625
v  -0.1562 1.0069 0.0625
v  0.1562 1.0101 0.0625
v  0.3124 0.9192 0.0625
v  0.3124 0.9192 -0.0356
v  0.3124 0.9192 -0.0625
v  0.0000 0.9192 -0.0625
v  0.0000 0.9192 -0.0356
v  0.1562 0.9192 -0.0356
v  0.1562 0.9192 -0.0625
v  -0.3124 0.9560 -0.0356
# 80 vertices

vn -0.0000 0.9976 -0.0696
vn -0.0122 0.9982 -0.0590
vn -0.0188 0.9974 -0.0696
vn 0.0000 0.0000 1.0000
vn 0.0000 -0.0000 1.0000
vn 0.0040 -0.0733 0.9973
vn 0.0033 -0.0738 0.9973
vn -0.0226 -0.0924 0.9955
vn -0.0291 -0.0972 0.9948
vn 1.0000 0.0000 -0.0000
vn -1.0000 0.0000 -0.0000
vn 0.0116 0.9996 -0.0276
vn 0.0000 1.0000 -0.0081
vn 0.0120 0.9982 -0.0591
vn 0.0185 0.9974 -0.0696
vn 0.0000 1.0000 -0.0000
vn 0.0237 -0.0974 0.9950
vn 0.0600 -0.1024 0.9929
vn 0.0149 -0.1026 0.9946
vn -0.0586 -0.0971 0.9936
vn -0.0000 -0.0000 1.0000
vn -0.0117 0.9996 -0.0272
vn 0.0000 1.0000 -0.0075
vn 0.2272 0.6101 -0.7591
vn 0.1678 0.9858 -0.0000
vn -0.1483 0.9889 -0.0000
vn -0.2409 0.6114 -0.7538
vn -0.0000 0.0000 1.0000
vn -0.0000 -0.9976 -0.0696
vn -0.0188 -0.9974 -0.0696
vn -0.0122 -0.9982 -0.0590
vn 0.0040 0.0733 0.9973
vn -0.0291 0.0972 0.9948
vn -0.0226 0.0924 0.9955
vn 0.0033 0.0738 0.9973
vn 0.0116 -0.9996 -0.0276
vn 0.0185 -0.9974 -0.0696
vn 0.0120 -0.9982 -0.0591
vn 0.0000 -1.0000 -0.0081
vn 0.0000 -1.0000 -0.0000
vn 0.0237 0.0974 0.9950
vn 0.0149 0.1026 0.9946
vn 0.0600 0.1024 0.9929
vn -0.0586 0.0971 0.9936
vn -0.0117 -0.9996 -0.0272
vn 0.0000 -1.0000 -0.0075
vn 0.2122 -0.5604 -0.8006
vn 0.1678 -0.9858 -0.0000
vn -0.1483 -0.9889 -0.0000
vn -0.2251 -0.5621 -0.7959
# 50 vertex normals

vt 0.1877 0.9173 0.0000
vt 0.1877 0.9548 0.0000
vt 0.1181 0.9548 0.0000
vt 0.1181 0.9173 0.0000
vt 0.5050 0.4320 0.0000
vt 0.5050 0.2194 0.0000
vt 0.7215 0.2194 0.0000
vt 0.7215 0.4320 0.0000
vt 0.1877 0.8619 0.0000
vt 0.1877 0.8247 0.0000
vt 0.2572 0.8351 0.0000
vt 0.2572 0.8619 0.0000
vt 0.9729 0.8181 0.0000
vt 0.9729 0.9680 0.0000
vt 0.7914 0.9680 0.0000
vt 0.7914 0.8181 0.0000
vt 0.9729 0.6395 0.0000
vt 0.9729 0.7894 0.0000
vt 0.7914 0.7894 0.0000
vt 0.7914 0.6395 0.0000
vt 0.3268 0.9136 0.0000
vt 0.3268 0.9549 0.0000
vt 0.2572 0.9548 0.0000
vt 0.2572 0.9173 0.0000
vt 0.0719 0.6049 0.0000
vt 0.2884 0.6049 0.0000
vt 0.1181 0.8619 0.0000
vt 0.0484 0.8600 0.0000
vt 0.1181 0.8365 0.0000
vt 0.3269 0.8601 0.0000
vt 0.0719 0.4320 0.0000
vt 0.2884 0.4320 0.0000
vt 0.2884 0.4739 0.0000
vt 0.7215 0.4689 0.0000
vt 0.9381 0.4320 0.0000
vt 0.9381 0.6049 0.0000
vt 0.5683 0.9680 0.0000
vt 0.5683 0.8181 0.0000
vt 0.9797 0.6049 0.0000
vt 0.9797 0.4320 0.0000
vt 0.9381 0.2194 0.0000
vt 0.9797 0.2194 0.0000
vt 0.0303 0.6049 0.0000
vt 0.0303 0.4320 0.0000
vt 0.5050 0.6049 0.0000
vt 0.7215 0.6049 0.0000
vt 0.0485 0.9135 0.0000
vt 0.0486 0.9549 0.0000
vt 0.0719 0.5554 0.0000
vt 0.0719 0.5543 0.0000
vt 0.9381 0.5555 0.0000
vt 0.9381 0.5543 0.0000
vt 0.7215 0.5543 0.0000
vt 0.5050 0.5543 0.0000
vt 0.2884 0.5543 0.0000
vt 0.1877 0.9048 0.0000
vt 0.1181 0.9048 0.0000
vt 0.1181 0.8673 0.0000
vt 0.1877 0.8673 0.0000
vt 0.1877 0.7284 0.0000
vt 0.2572 0.7284 0.0000
vt 0.2572 0.7552 0.0000
vt 0.1877 0.7656 0.0000
vt 0.3792 0.9680 0.0000
vt 0.3792 0.8181 0.0000
vt 0.5683 0.7894 0.0000
vt 0.3792 0.7894 0.0000
vt 0.3792 0.6395 0.0000
vt 0.5683 0.6395 0.0000
vt 0.3268 0.9085 0.0000
vt 0.2572 0.9048 0.0000
vt 0.2572 0.8673 0.0000
vt 0.3268 0.8673 0.0000
vt 0.0719 0.0392 0.0000
vt 0.2884 0.0392 0.0000
vt 0.0719 0.2194 0.0000
vt 0.2884 0.2194 0.0000
vt 0.1181 0.7284 0.0000
vt 0.1181 0.7538 0.0000
vt 0.0484 0.7302 0.0000
vt 0.3269 0.7302 0.0000
vt 0.2884 0.1775 0.0000
vt 0.7215 0.1825 0.0000
vt 0.9381 0.0392 0.0000
vt 0.9797 0.0392 0.0000
vt 0.0303 0.0392 0.0000
vt 0.0303 0.2194 0.0000
vt 0.5050 0.0392 0.0000
vt 0.7215 0.0392 0.0000
vt 0.0485 0.9086 0.0000
vt 0.0486 0.8673 0.0000
vt 0.0719 0.0971 0.0000
vt 0.0719 0.0960 0.0000
vt 0.9381 0.0960 0.0000
vt 0.9381 0.0971 0.0000
vt 0.7215 0.0971 0.0000
vt 0.5050 0.0971 0.0000
vt 0.2884 0.0971 0.0000
# 98 texture coords

g Lamp_6
usemtl wire_138008110
s 4
f 1/1/1 2/2/1 3/3/2 4/4/3 
s 8
f 5/5/4 6/6/5 7/7/4 8/8/4 
f 1/9/6 9/10/7 10/11/8 11/12/9 
s 16
f 12/13/10 13/14/10 14/15/10 15/16/10 
s 64
f 16/17/11 17/18/11 18/19/11 19/20/11 
s 4
f 20/21/12 21/22/13 22/23/14 11/24/15 
f 11/24/15 22/23/14 2/2/1 1/1/1 
f 23/25/16 24/25/16 25/26/16 26/26/16 
s 8
f 4/27/17 27/28/18 28/29/19 
f 4/27/17 28/29/19 9/10/7 1/9/6 
f 20/30/20 11/12/9 10/11/8 
f 29/25/5 30/31/5 31/32/4 32/33/4 
f 32/33/4 31/32/4 5/5/4 
f 5/5/4 8/8/4 33/34/21 
f 33/34/21 8/8/4 34/35/21 35/36/21 
s 16
f 14/15/10 36/37/10 37/38/10 15/16/10 
s off
f 38/36/16 35/36/16 13/39/16 12/39/16 
f 39/36/16 38/36/16 12/39/16 
f 35/36/5 34/35/5 14/40/5 13/39/5 
f 34/35/4 40/41/4 36/42/4 14/40/4 
f 24/25/16 23/25/16 17/43/16 16/43/16 
f 29/25/16 24/25/16 16/43/16 
f 30/31/5 29/25/5 16/43/5 19/44/5 
s 4
f 41/45/16 26/26/16 25/26/16 42/45/16 
f 39/36/16 43/46/16 44/46/16 38/36/16 
f 43/46/16 41/45/16 42/45/16 44/46/16 
f 27/47/22 4/4/3 3/3/2 45/48/23 
s off
f 24/25/10 29/25/10 27/49/10 45/50/10 
f 29/25/24 32/33/24 28/33/24 27/49/24 
f 32/33/25 5/5/25 9/5/25 28/33/25 
f 5/5/26 33/34/26 10/34/26 9/5/26 
f 33/34/27 35/36/27 20/51/27 10/34/27 
f 35/36/11 38/36/11 21/52/11 20/51/11 
f 38/36/28 44/46/28 22/53/28 21/52/28 
f 44/46/4 42/45/4 2/54/4 22/53/4 
f 42/45/4 25/26/4 3/55/4 2/54/4 
f 25/26/28 24/25/28 45/50/28 3/55/28 
s 4
f 46/56/29 47/57/30 48/58/31 49/59/29 
s 8
f 46/60/32 50/61/33 51/62/34 52/63/35 
s 16
f 36/37/10 53/64/10 54/65/10 37/38/10 
s 64
f 55/66/11 56/67/11 57/68/11 58/69/11 
s 4
f 59/70/36 50/71/37 60/72/38 61/73/39 
f 50/71/37 46/56/29 49/59/29 60/72/38 
f 62/74/40 63/75/40 64/75/40 65/74/40 
s 8
f 31/32/4 30/31/5 66/76/4 67/77/5 
f 5/5/4 31/32/4 67/77/5 6/6/5 
f 47/78/41 68/79/42 69/80/43 
f 47/78/41 46/60/32 52/63/35 68/79/42 
f 59/81/44 51/62/34 50/61/33 
f 70/74/4 71/82/5 67/77/5 66/76/4 
f 71/82/5 6/6/5 67/77/5 
f 6/6/5 72/83/28 7/7/4 
f 72/83/28 73/84/28 40/41/28 7/7/4 
s 64
f 58/69/11 19/20/11 18/19/11 55/66/11 
s 8
f 34/35/21 8/8/4 7/7/4 40/41/28 
s off
f 53/85/40 73/84/40 74/84/40 54/85/40 
f 75/84/40 54/85/40 74/84/40 
f 73/84/4 53/85/4 36/42/4 40/41/4 
f 56/86/40 62/74/40 65/74/40 57/86/40 
f 70/74/40 57/86/40 65/74/40 
f 66/76/4 58/87/4 57/86/4 70/74/4 
s 4
f 76/88/40 77/88/40 64/75/40 63/75/40 
f 75/84/40 74/84/40 78/89/40 79/89/40 
f 79/89/40 78/89/40 77/88/40 76/88/40 
f 69/90/45 80/91/46 48/58/31 47/57/30 
s off
f 65/74/10 80/92/10 69/93/10 70/74/10 
f 70/74/47 69/93/47 68/82/47 71/82/47 
f 71/82/48 68/82/48 52/6/48 6/6/48 
f 6/6/49 52/6/49 51/83/49 72/83/49 
f 72/83/50 51/83/50 59/94/50 73/84/50 
f 73/84/11 59/94/11 61/95/11 74/84/11 
f 74/84/28 61/95/28 60/96/28 78/89/28 
f 78/89/4 60/96/4 49/97/4 77/88/4 
f 77/88/4 49/97/4 48/98/4 64/75/4 
f 64/75/28 48/98/28 80/92/28 65/74/28 
f 30/31/4 19/44/4 58/87/4 66/76/4 
# 64 polygons - 12 triangles

