# 3ds Max Wavefront OBJ Exporter v0.97b - (c)2007 guruware
# File Created: 31.01.2016 20:54:14

mtllib Lamp 7.mtl

#
# object Lamp_7
#

v  0.0000 -0.9788 -0.0000
v  -0.0000 -1.0020 -0.0866
v  -0.0433 -1.0020 -0.0750
v  -0.0750 -1.0020 -0.0433
v  -0.0866 -1.0020 -0.0000
v  -0.0750 -1.0020 0.0433
v  -0.0433 -1.0020 0.0750
v  -0.0000 -1.0020 0.0866
v  0.0433 -1.0020 0.0750
v  0.0750 -1.0020 0.0433
v  0.0866 -1.0020 0.0000
v  0.0750 -1.0020 -0.0433
v  0.0433 -1.0020 -0.0750
v  -0.0750 -1.0654 -0.1299
v  -0.0000 -1.0654 -0.1500
v  -0.1299 -1.0654 -0.0750
v  -0.1500 -1.0654 -0.0000
v  -0.1299 -1.0654 0.0750
v  -0.0750 -1.0654 0.1299
v  -0.0000 -1.0654 0.1500
v  0.0750 -1.0654 0.1299
v  0.1299 -1.0654 0.0750
v  0.1500 -1.0654 0.0000
v  0.1299 -1.0654 -0.0750
v  0.0750 -1.0654 -0.1299
v  -0.0866 -1.1520 -0.1500
v  -0.0000 -1.1520 -0.1732
v  -0.1500 -1.1520 -0.0866
v  -0.1732 -1.1520 -0.0000
v  -0.1500 -1.1520 0.0866
v  -0.0866 -1.1520 0.1500
v  -0.0000 -1.1520 0.1732
v  0.0866 -1.1520 0.1500
v  0.1500 -1.1520 0.0866
v  0.1732 -1.1520 0.0000
v  0.1500 -1.1520 -0.0866
v  0.0866 -1.1520 -0.1500
v  -0.0750 -1.2386 -0.1299
v  -0.0000 -1.2386 -0.1500
v  -0.1299 -1.2386 -0.0750
v  -0.1500 -1.2386 -0.0000
v  -0.1299 -1.2386 0.0750
v  -0.0750 -1.2386 0.1299
v  -0.0000 -1.2386 0.1500
v  0.0750 -1.2386 0.1299
v  0.1299 -1.2386 0.0750
v  0.1500 -1.2386 0.0000
v  0.1299 -1.2386 -0.0750
v  0.0750 -1.2386 -0.1299
v  -0.0433 -1.3020 -0.0750
v  -0.0000 -1.3020 -0.0866
v  -0.0750 -1.3020 -0.0433
v  -0.0866 -1.3020 -0.0000
v  -0.0750 -1.3020 0.0433
v  -0.0433 -1.3020 0.0750
v  -0.0000 -1.3020 0.0866
v  0.0433 -1.3020 0.0750
v  0.0750 -1.3020 0.0433
v  0.0866 -1.3020 0.0000
v  0.0750 -1.3020 -0.0433
v  0.0433 -1.3020 -0.0750
v  0.0000 -1.3252 -0.0000
v  0.0116 -0.9982 -0.0000
v  -0.0000 -0.9982 -0.0116
v  -0.0000 -0.8943 -0.0116
v  0.0116 -0.8943 -0.0000
v  -0.0116 -0.9982 -0.0000
v  -0.0116 -0.8943 -0.0000
v  0.0000 -0.9982 0.0116
v  0.0000 -0.8943 0.0116
v  0.0050 -1.0507 -0.0000
v  -0.0000 -1.0507 -0.0050
v  -0.0000 0.0140 -0.0050
v  0.0050 0.0140 -0.0000
v  -0.0050 -1.0507 -0.0000
v  -0.0050 0.0140 -0.0000
v  0.0000 -1.0507 0.0050
v  0.0000 0.0140 0.0050
# 78 vertices

vn 0.0000 1.0000 -0.0000
vn 0.0000 0.8474 -0.5309
vn -0.2654 0.8474 -0.4598
vn -0.4598 0.8474 -0.2654
vn -0.5309 0.8474 -0.0000
vn -0.4598 0.8474 0.2654
vn -0.2655 0.8474 0.4598
vn -0.0000 0.8474 0.5309
vn 0.2654 0.8474 0.4598
vn 0.4598 0.8474 0.2655
vn 0.5309 0.8474 0.0000
vn 0.4598 0.8474 -0.2654
vn 0.2655 0.8474 -0.4598
vn -0.4380 0.4823 -0.7586
vn 0.0000 0.4823 -0.8760
vn -0.7586 0.4823 -0.4380
vn -0.8760 0.4823 -0.0000
vn -0.7586 0.4823 0.4380
vn -0.4380 0.4823 0.7586
vn -0.0000 0.4823 0.8760
vn 0.4380 0.4823 0.7586
vn 0.7586 0.4823 0.4380
vn 0.8760 0.4823 0.0000
vn 0.7586 0.4823 -0.4380
vn 0.4380 0.4823 -0.7586
vn -0.5000 -0.0000 -0.8660
vn 0.0000 -0.0000 -1.0000
vn -0.8660 -0.0000 -0.5000
vn -1.0000 -0.0000 -0.0000
vn -0.8660 -0.0000 0.5000
vn -0.5000 -0.0000 0.8660
vn -0.0000 -0.0000 1.0000
vn 0.5000 -0.0000 0.8660
vn 0.8660 -0.0000 0.5000
vn 1.0000 -0.0000 0.0000
vn 0.8660 -0.0000 -0.5000
vn 0.5000 -0.0000 -0.8660
vn -0.4380 -0.4823 -0.7586
vn 0.0000 -0.4823 -0.8760
vn -0.7586 -0.4823 -0.4380
vn -0.8760 -0.4823 -0.0000
vn -0.7586 -0.4823 0.4380
vn -0.4380 -0.4823 0.7586
vn -0.0000 -0.4823 0.8760
vn 0.4380 -0.4823 0.7586
vn 0.7586 -0.4823 0.4380
vn 0.8760 -0.4823 0.0000
vn 0.7586 -0.4823 -0.4380
vn 0.4380 -0.4823 -0.7586
vn -0.2654 -0.8474 -0.4598
vn 0.0000 -0.8474 -0.5309
vn -0.4598 -0.8474 -0.2654
vn -0.5309 -0.8474 -0.0000
vn -0.4598 -0.8474 0.2654
vn -0.2655 -0.8474 0.4598
vn -0.0000 -0.8474 0.5309
vn 0.2654 -0.8474 0.4598
vn 0.4598 -0.8474 0.2655
vn 0.5309 -0.8474 0.0000
vn 0.4598 -0.8474 -0.2654
vn 0.2655 -0.8474 -0.4598
vn 0.0000 -1.0000 -0.0000
vn 1.0000 0.0000 0.0000
vn 0.0000 0.0000 -1.0000
vn -0.0000 0.0000 -1.0000
vn 1.0000 0.0000 -0.0000
vn -1.0000 0.0000 -0.0000
vn -1.0000 0.0000 0.0000
vn 0.0000 0.0000 1.0000
# 69 vertex normals

vt 0.2726 0.7091 0.0000
vt 0.2726 0.8385 0.0000
vt 0.2063 0.8212 0.0000
vt 0.1578 0.7738 0.0000
vt 0.1400 0.7091 0.0000
vt 0.1578 0.6444 0.0000
vt 0.2063 0.5970 0.0000
vt 0.2726 0.5797 0.0000
vt 0.3389 0.5970 0.0000
vt 0.3874 0.6444 0.0000
vt 0.4052 0.7091 0.0000
vt 0.3874 0.7738 0.0000
vt 0.3389 0.8212 0.0000
vt 0.1578 0.9033 0.0000
vt 0.2726 0.9333 0.0000
vt 0.0737 0.8212 0.0000
vt 0.0429 0.7091 0.0000
vt 0.0737 0.5970 0.0000
vt 0.1578 0.5149 0.0000
vt 0.2726 0.4849 0.0000
vt 0.3874 0.5149 0.0000
vt 0.4715 0.5970 0.0000
vt 0.5023 0.7091 0.0000
vt 0.4715 0.8212 0.0000
vt 0.3874 0.9033 0.0000
vt 0.1044 0.3463 0.0000
vt 0.1044 0.4506 0.0000
vt 0.0268 0.4506 0.0000
vt 0.0268 0.3463 0.0000
vt 0.1820 0.3463 0.0000
vt 0.1820 0.4506 0.0000
vt 0.2595 0.3463 0.0000
vt 0.2595 0.4506 0.0000
vt 0.3371 0.3463 0.0000
vt 0.3371 0.4506 0.0000
vt 0.4146 0.3463 0.0000
vt 0.4146 0.4506 0.0000
vt 0.4922 0.3463 0.0000
vt 0.4922 0.4506 0.0000
vt 0.5698 0.3463 0.0000
vt 0.5698 0.4506 0.0000
vt 0.6473 0.3463 0.0000
vt 0.6473 0.4506 0.0000
vt 0.7249 0.3463 0.0000
vt 0.7249 0.4506 0.0000
vt 0.8024 0.3463 0.0000
vt 0.8024 0.4506 0.0000
vt 0.8800 0.3463 0.0000
vt 0.8800 0.4506 0.0000
vt 0.9576 0.3463 0.0000
vt 0.9576 0.4506 0.0000
vt 0.1044 0.2420 0.0000
vt 0.0268 0.2420 0.0000
vt 0.1820 0.2420 0.0000
vt 0.2595 0.2420 0.0000
vt 0.3371 0.2420 0.0000
vt 0.4146 0.2420 0.0000
vt 0.4922 0.2420 0.0000
vt 0.5698 0.2420 0.0000
vt 0.6473 0.2420 0.0000
vt 0.7249 0.2420 0.0000
vt 0.8024 0.2420 0.0000
vt 0.8800 0.2420 0.0000
vt 0.9576 0.2420 0.0000
vt 0.1044 0.1377 0.0000
vt 0.0268 0.1377 0.0000
vt 0.1820 0.1377 0.0000
vt 0.2595 0.1377 0.0000
vt 0.3371 0.1377 0.0000
vt 0.4146 0.1377 0.0000
vt 0.4922 0.1377 0.0000
vt 0.5698 0.1377 0.0000
vt 0.6473 0.1377 0.0000
vt 0.7249 0.1377 0.0000
vt 0.8024 0.1377 0.0000
vt 0.8800 0.1377 0.0000
vt 0.9576 0.1377 0.0000
vt 0.0268 0.0333 0.0000
vt 0.1044 0.0333 0.0000
vt 0.1820 0.0333 0.0000
vt 0.2595 0.0333 0.0000
vt 0.3371 0.0333 0.0000
vt 0.4146 0.0333 0.0000
vt 0.4922 0.0333 0.0000
vt 0.5698 0.0333 0.0000
vt 0.6473 0.0333 0.0000
vt 0.7249 0.0333 0.0000
vt 0.8024 0.0333 0.0000
vt 0.8800 0.0333 0.0000
vt 0.8740 0.5045 1.0000
vt 0.9837 0.5045 1.0000
vt 0.9837 0.9781 1.0000
vt 0.8740 0.9781 1.0000
vt 0.5449 0.5045 1.0000
vt 0.6546 0.5045 1.0000
vt 0.6546 0.9781 1.0000
vt 0.5449 0.9781 1.0000
vt 0.7643 0.5045 1.0000
vt 0.7643 0.9781 1.0000
vt -0.4967 0.6536 -0.2500
vt -0.4966 0.6536 -0.2500
vt 0.5000 0.5000 0.2500
vt 0.5001 0.5000 0.2500
vt 0.5000 0.5001 0.2500
vt 0.8762 0.5043 1.0000
vt 0.9881 0.5043 1.0000
vt 0.9881 0.9873 1.0000
vt 0.8762 0.9873 1.0000
vt 0.5405 0.5043 1.0000
vt 0.6524 0.5043 1.0000
vt 0.6524 0.9873 1.0000
vt 0.5405 0.9873 1.0000
vt 0.7643 0.5043 1.0000
vt 0.7643 0.9873 1.0000
vt 0.5000 0.4999 -0.2500
vt 0.4999 0.5000 -0.2500
vt 0.5000 0.5001 -0.2500
vt 0.5001 0.5000 -0.2500
vt 0.4999 0.5000 0.2500
vt 0.5000 0.4999 0.2500
# 120 texture coords

g Lamp_7
usemtl wire_196088225
s 1
f 1/1/1 2/2/2 3/3/3 
f 1/1/1 3/3/3 4/4/4 
f 1/1/1 4/4/4 5/5/5 
f 1/1/1 5/5/5 6/6/6 
f 1/1/1 6/6/6 7/7/7 
f 1/1/1 7/7/7 8/8/8 
f 1/1/1 8/8/8 9/9/9 
f 1/1/1 9/9/9 10/10/10 
f 1/1/1 10/10/10 11/11/11 
f 1/1/1 11/11/11 12/12/12 
f 1/1/1 12/12/12 13/13/13 
f 1/1/1 13/13/13 2/2/2 
f 14/14/14 3/3/3 2/2/2 15/15/15 
f 16/16/16 4/4/4 3/3/3 14/14/14 
f 17/17/17 5/5/5 4/4/4 16/16/16 
f 18/18/18 6/6/6 5/5/5 17/17/17 
f 19/19/19 7/7/7 6/6/6 18/18/18 
f 20/20/20 8/8/8 7/7/7 19/19/19 
f 21/21/21 9/9/9 8/8/8 20/20/20 
f 22/22/22 10/10/10 9/9/9 21/21/21 
f 23/23/23 11/11/11 10/10/10 22/22/22 
f 24/24/24 12/12/12 11/11/11 23/23/23 
f 25/25/25 13/13/13 12/12/12 24/24/24 
f 15/15/15 2/2/2 13/13/13 25/25/25 
f 26/26/26 14/27/14 15/28/15 27/29/27 
f 28/30/28 16/31/16 14/27/14 26/26/26 
f 29/32/29 17/33/17 16/31/16 28/30/28 
f 30/34/30 18/35/18 17/33/17 29/32/29 
f 31/36/31 19/37/19 18/35/18 30/34/30 
f 32/38/32 20/39/20 19/37/19 31/36/31 
f 33/40/33 21/41/21 20/39/20 32/38/32 
f 34/42/34 22/43/22 21/41/21 33/40/33 
f 35/44/35 23/45/23 22/43/22 34/42/34 
f 36/46/36 24/47/24 23/45/23 35/44/35 
f 37/48/37 25/49/25 24/47/24 36/46/36 
f 27/50/27 15/51/15 25/49/25 37/48/37 
f 38/52/38 26/26/26 27/29/27 39/53/39 
f 40/54/40 28/30/28 26/26/26 38/52/38 
f 41/55/41 29/32/29 28/30/28 40/54/40 
f 42/56/42 30/34/30 29/32/29 41/55/41 
f 43/57/43 31/36/31 30/34/30 42/56/42 
f 44/58/44 32/38/32 31/36/31 43/57/43 
f 45/59/45 33/40/33 32/38/32 44/58/44 
f 46/60/46 34/42/34 33/40/33 45/59/45 
f 47/61/47 35/44/35 34/42/34 46/60/46 
f 48/62/48 36/46/36 35/44/35 47/61/47 
f 49/63/49 37/48/37 36/46/36 48/62/48 
f 39/64/39 27/50/27 37/48/37 49/63/49 
f 50/65/50 38/52/38 39/53/39 51/66/51 
f 52/67/52 40/54/40 38/52/38 50/65/50 
f 53/68/53 41/55/41 40/54/40 52/67/52 
f 54/69/54 42/56/42 41/55/41 53/68/53 
f 55/70/55 43/57/43 42/56/42 54/69/54 
f 56/71/56 44/58/44 43/57/43 55/70/55 
f 57/72/57 45/59/45 44/58/44 56/71/56 
f 58/73/58 46/60/46 45/59/45 57/72/57 
f 59/74/59 47/61/47 46/60/46 58/73/58 
f 60/75/60 48/62/48 47/61/47 59/74/59 
f 61/76/61 49/63/49 48/62/48 60/75/60 
f 51/77/51 39/64/39 49/63/49 61/76/61 
f 62/78/62 50/65/50 51/66/51 
f 62/79/62 52/67/52 50/65/50 
f 62/80/62 53/68/53 52/67/52 
f 62/81/62 54/69/54 53/68/53 
f 62/82/62 55/70/55 54/69/54 
f 62/83/62 56/71/56 55/70/55 
f 62/84/62 57/72/57 56/71/56 
f 62/85/62 58/73/58 57/72/57 
f 62/86/62 59/74/59 58/73/58 
f 62/87/62 60/75/60 59/74/59 
f 62/88/62 61/76/61 60/75/60 
f 62/89/62 51/77/51 61/76/61 
s 8
f 63/90/63 64/91/64 65/92/65 66/93/66 
f 64/94/64 67/95/67 68/96/68 65/97/65 
f 67/95/67 69/98/69 70/99/69 68/96/68 
f 69/98/69 63/90/63 66/93/66 70/99/69 
s 1
f 67/100/62 64/100/62 63/100/62 69/101/62 
f 65/102/1 68/102/1 70/103/1 66/104/1 
s 8
f 71/105/63 72/106/64 73/107/65 74/108/66 
f 72/109/64 75/110/67 76/111/68 73/112/65 
f 75/110/67 77/113/69 78/114/69 76/111/68 
f 77/113/69 71/105/63 74/108/66 78/114/69 
s 1
f 75/115/62 72/116/62 71/117/62 77/118/62 
f 73/119/1 76/120/1 78/103/1 74/102/1 
# 60 polygons - 24 triangles

